<?xml version="1.0" encoding="UTF-8"?>
<svg width="4267px" height="894px" viewBox="0 0 4267 894" version="1.1" xmlns="http://www.w3.org/2000/svg" xmlns:xlink="http://www.w3.org/1999/xlink">
    <!-- Generator: Sketch 52.6 (67491) - http://www.bohemiancoding.com/sketch -->
    <title>Color logo with background</title>
    <desc>Created with Sketch.</desc>
    <g id="Page-1" stroke="none" stroke-width="1" fill="none" fill-rule="evenodd">
        <g id="Color-logo-with-background" transform="translate(-6.000000, -11.000000)" fill="#dddddd">
            <g id="Group" transform="translate(0.736842, 0.210526)">
                <g id="SvgjsG1486" transform="translate(0.464219, 0.503877)">
                    <polygon id="Path" points="317.681867 596.05357 121.708014 488.900441 121.708014 429.516074 317.681867 322.798394 317.681867 392.709742 180.983519 458.451665 317.681867 526.664761"></polygon>
                    <polygon id="Path" points="335.818321 643.158273 406.611453 271.262997 447.815821 271.262997 376.227994 643.158273"></polygon>
                    <polygon id="Path" points="465.930502 596.347498 465.930502 526.893372 602.792144 459.191928 465.930502 392.208975 465.930502 323.277388 662.100307 430.005954 662.100307 488.900441"></polygon>
                    <path d="M391.893275,903.894288 L5.06209541,680.574234 L5.06209541,233.879694 L391.893275,10.5487537 L778.746226,233.89058 L778.746226,680.541575 L391.893275,903.894288 Z M44.3069426,657.898224 L391.893275,858.574927 L739.501379,657.898224 L739.501379,256.544818 L391.893275,55.8572291 L44.3069426,256.533932 L44.3069426,657.898224 Z" id="Shape" fill-rule="nonzero"></path>
                </g>
                <g id="SvgjsG1487" transform="translate(1071.000000, 278.000000)" fill-rule="nonzero">
                    <path d="M314.524913,54.6034864 L282.597014,91.9996648 C257.96692,66.4608113 221.934004,50.9550788 183.164412,50.9550788 C107.449678,50.9550788 49.0672331,105.225142 49.0672331,181.841703 C49.0672331,255.265907 112.46692,309.07992 183.620525,309.07992 C227.863471,309.07992 267.089177,288.557627 291.719271,255.721958 L322.278832,297.222595 C288.070368,335.530875 237.897954,358.789474 183.164412,358.789474 C80.0829071,358.789474 0.263157895,278.524506 0.263157895,175.913041 C0.263157895,75.5818304 86.0123742,0.789473684 183.620525,0.789473684 C234.705164,0.789473684 281.228675,21.3117667 314.524913,54.6034864 Z M606.893252,231.095206 C606.893252,178.193295 561.281967,155.390748 516.582907,155.390748 C470.971622,155.390748 426.272562,179.561448 426.272562,232.91941 C426.272562,286.277372 471.883848,310.448072 517.03902,310.448072 C561.73808,310.448072 606.893252,282.172913 606.893252,231.095206 Z M656.15344,230.639155 C656.15344,310.904123 587.736512,358.333423 516.126794,358.333423 C444.517076,358.333423 377.012374,311.816225 377.012374,232.007308 C377.012374,151.74234 445.885415,107.049346 516.582907,107.049346 C587.736512,107.049346 656.15344,148.549983 656.15344,230.639155 Z M859.579772,161.775461 L812.600148,161.775461 L812.600148,303.607308 L859.579772,303.607308 C905.191058,303.607308 931.18949,277.612404 931.18949,232.007308 C931.18949,185.946162 905.191058,161.775461 859.579772,161.775461 Z M734.148738,161.775461 L713.167547,114.802213 L859.579772,114.802213 C930.733377,114.802213 979.08134,155.846799 979.08134,231.095206 C979.08134,304.51941 931.645603,351.036607 859.579772,351.036607 L763.33996,351.036607 L763.33996,161.775461 L734.148738,161.775461 Z M1112.26629,266.21113 L1112.26629,303.607308 L1260.50297,303.607308 L1260.50297,351.036607 L1065.74278,351.036607 L1065.74278,114.802213 L1251.83683,114.802213 L1251.83683,161.775461 L1112.26629,161.775461 L1112.26629,219.237881 C1132.79137,207.380556 1158.7898,205.556353 1186.15657,205.556353 L1220.82115,205.556353 L1220.82115,252.529601 L1186.15657,252.529601 C1142.82585,252.529601 1132.79137,255.265907 1112.26629,266.21113 Z M1354.91833,58.707945 L1315.23651,10.8225947 L1379.54842,10.8225947 L1598.02648,270.771639 L1598.02648,10.8225947 L1648.19889,10.8225947 L1648.19889,351.036607 L1598.93871,351.036607 L1403.72241,117.082467 L1403.72241,351.036607 L1354.91833,351.036607 L1354.91833,58.707945 Z M1960.18009,231.095206 C1960.18009,178.193295 1914.5688,155.390748 1869.86974,155.390748 C1824.25846,155.390748 1779.5594,179.561448 1779.5594,232.91941 C1779.5594,286.277372 1825.17068,310.448072 1870.32585,310.448072 C1915.02491,310.448072 1960.18009,282.172913 1960.18009,231.095206 Z M2009.44027,230.639155 C2009.44027,310.904123 1941.02335,358.333423 1869.41363,358.333423 C1797.80391,358.333423 1730.29921,311.816225 1730.29921,232.007308 C1730.29921,151.74234 1799.17225,107.049346 1869.86974,107.049346 C1941.02335,107.049346 2009.44027,148.549983 2009.44027,230.639155 Z M2281.28353,161.775461 L2192.34153,161.775461 L2192.34153,351.036607 L2145.3619,351.036607 L2145.3619,161.775461 L2059.61269,161.775461 L2059.61269,114.802213 L2281.28353,114.802213 L2281.28353,161.775461 Z M2490.18322,272.595843 L2496.5688,272.595843 L2450.5014,185.03406 L2394.39952,293.118136 C2409.45125,285.36527 2441.37915,272.595843 2490.18322,272.595843 Z M2426.32742,138.972913 L2410.81958,109.329601 L2461.44811,109.329601 L2589.15971,351.036607 L2537.61896,351.036607 L2518.91833,315.464633 L2490.63933,315.464633 C2432.25689,315.464633 2371.59388,338.267181 2363.83996,348.300302 L2362.47162,351.036607 L2313.21143,351.036607 L2426.32742,138.972913 Z M2834.54842,254.809856 L2849.14404,279.436607 C2860.54686,298.590748 2876.96692,300.414951 2888.82585,300.414951 L2905.24592,300.414951 L2905.24592,351.036607 L2884.72084,351.036607 C2860.09074,351.036607 2837.74121,349.212404 2815.8478,313.640429 L2779.35877,254.353805 L2776.16598,254.353805 C2739.22084,254.353805 2729.18636,258.002213 2710.02962,268.035334 L2710.02962,351.036607 L2662.13777,351.036607 L2662.13777,114.802213 L2814.47946,114.802213 C2857.81018,114.802213 2888.82585,144.901576 2888.82585,185.946162 C2888.82585,221.974187 2868.75689,244.320684 2834.54842,254.809856 Z M2776.16598,207.380556 L2814.47946,207.380556 C2828.61896,207.380556 2840.934,199.62769 2840.934,184.578009 C2840.934,163.599665 2822.68949,161.775461 2806.26943,161.775461 L2710.02962,161.775461 L2710.02962,221.062085 C2728.27413,211.028964 2751.53589,207.380556 2776.16598,207.380556 Z M3201.26316,114.802213 L3103.65501,255.721958 L3103.65501,351.036607 L3057.1315,351.036607 L3057.1315,255.721958 L2957.69889,114.802213 L3016.99357,114.802213 L3079.93714,207.836607 L3144.70516,114.802213 L3201.26316,114.802213 Z" id="Shape"></path>
                </g>
            </g>
        </g>
    </g>
</svg>