<?xml version="1.0" encoding="UTF-8" standalone="no"?>
<svg
   xmlns:dc="http://purl.org/dc/elements/1.1/"
   xmlns:cc="http://creativecommons.org/ns#"
   xmlns:rdf="http://www.w3.org/1999/02/22-rdf-syntax-ns#"
   xmlns:svg="http://www.w3.org/2000/svg"
   xmlns="http://www.w3.org/2000/svg"
   xmlns:sodipodi="http://sodipodi.sourceforge.net/DTD/sodipodi-0.dtd"
   xmlns:inkscape="http://www.inkscape.org/namespaces/inkscape"
   width="201"
   height="55"
   viewBox="0 0 201 55"
   fill="none"
   version="1.1"
   id="svg48"
   sodipodi:docname="logo-primary.svg"
   inkscape:version="1.0.1 (3bc2e813f5, 2020-09-07)">
  <metadata
     id="metadata54">
    <rdf:RDF>
      <cc:Work
         rdf:about="">
        <dc:format>image/svg+xml</dc:format>
        <dc:type
           rdf:resource="http://purl.org/dc/dcmitype/StillImage" />
        <dc:title></dc:title>
      </cc:Work>
    </rdf:RDF>
  </metadata>
  <defs
     id="defs52" />
  <sodipodi:namedview
     pagecolor="#ffffff"
     bordercolor="#666666"
     borderopacity="1"
     objecttolerance="10"
     gridtolerance="10"
     guidetolerance="10"
     inkscape:pageopacity="0"
     inkscape:pageshadow="2"
     inkscape:window-width="2558"
     inkscape:window-height="1360"
     id="namedview50"
     showgrid="false"
     inkscape:zoom="5.5124378"
     inkscape:cx="107.15208"
     inkscape:cy="-9.280814"
     inkscape:window-x="2553"
     inkscape:window-y="0"
     inkscape:window-maximized="0"
     inkscape:current-layer="svg48" />
  <path
     d="M71.9519 22.8369C70.5995 22.8369 69.5524 23.3469 68.8106 24.367C68.0687 25.3793 67.6978 26.7935 67.6978 28.6095C67.6978 32.3884 69.1158 34.2779 71.9519 34.2779C73.142 34.2779 74.5832 33.9804 76.2756 33.3853V36.3992C74.8846 36.9787 73.3313 37.2685 71.6158 37.2685C69.1506 37.2685 67.265 36.5228 65.959 35.0313C64.653 33.5321 64 31.3838 64 28.5863C64 26.8244 64.3207 25.2827 64.9621 23.9613C65.6035 22.6321 66.5231 21.6159 67.7209 20.9126C68.9265 20.2017 70.3368 19.8462 71.9519 19.8462C73.5979 19.8462 75.2517 20.2442 76.9132 21.0401L75.754 23.9613C75.1203 23.6599 74.4828 23.3971 73.8414 23.173C73.2 22.9489 72.5701 22.8369 71.9519 22.8369Z"
     fill="#FAF9F8"
     id="path2" />
  <path
     d="M82.4308 30.5338C82.4308 31.8166 82.6395 32.7864 83.0568 33.4433C83.4818 34.1001 84.1696 34.4286 85.1201 34.4286C86.0629 34.4286 86.7391 34.104 87.1486 33.4549C87.5659 32.798 87.7746 31.8243 87.7746 30.5338C87.7746 29.2509 87.5659 28.2888 87.1486 27.6474C86.7313 27.006 86.0474 26.6853 85.0969 26.6853C84.1541 26.6853 83.4741 27.006 83.0568 27.6474C82.6395 28.2811 82.4308 29.2432 82.4308 30.5338ZM91.3912 30.5338C91.3912 32.6434 90.8348 34.2933 89.722 35.4834C88.6092 36.6735 87.0598 37.2685 85.0737 37.2685C83.8296 37.2685 82.7322 36.9981 81.7817 36.4571C80.8312 35.9084 80.1009 35.1241 79.5908 34.104C79.0808 33.0839 78.8258 31.8938 78.8258 30.5338C78.8258 28.4163 79.3783 26.7703 80.4834 25.5957C81.5885 24.4211 83.1418 23.8337 85.1433 23.8337C86.3875 23.8337 87.4848 24.1042 88.4353 24.6452C89.3858 25.1861 90.1161 25.9628 90.6262 26.9751C91.1362 27.9874 91.3912 29.1737 91.3912 30.5338Z"
     fill="#FAF9F8"
     id="path4" />
  <path
     d="M98.4158 37.2685C96.8934 37.2685 95.6956 36.6774 94.8224 35.495C93.9568 34.3126 93.5241 32.6744 93.5241 30.5801C93.5241 28.455 93.9646 26.8012 94.8455 25.6189C95.7342 24.4288 96.9552 23.8337 98.5085 23.8337C100.139 23.8337 101.383 24.4674 102.241 25.7348H102.357C102.179 24.7688 102.09 23.9072 102.09 23.1498V19H105.637V37.0367H102.925L102.241 35.3559H102.09C101.287 36.631 100.062 37.2685 98.4158 37.2685ZM99.6561 34.4518C100.56 34.4518 101.221 34.189 101.638 33.6635C102.063 33.138 102.295 32.2455 102.334 30.9858V30.6033C102.334 29.2123 102.117 28.2154 101.685 27.6126C101.26 27.0099 100.564 26.7085 99.5981 26.7085C98.8099 26.7085 98.1955 27.0446 97.7551 27.717C97.3223 28.3816 97.1059 29.3514 97.1059 30.6265C97.1059 31.9016 97.3262 32.8598 97.7666 33.5012C98.2071 34.1349 98.8369 34.4518 99.6561 34.4518Z"
     fill="#FAF9F8"
     id="path6" />
  <path
     d="M114.702 26.3491C113.953 26.3491 113.365 26.5887 112.94 27.0678C112.515 27.5392 112.272 28.2115 112.21 29.0848H117.171C117.156 28.2115 116.928 27.5392 116.487 27.0678C116.047 26.5887 115.452 26.3491 114.702 26.3491ZM115.201 37.2685C113.114 37.2685 111.484 36.6928 110.309 35.5414C109.134 34.3899 108.547 32.7594 108.547 30.6497C108.547 28.4782 109.088 26.8012 110.17 25.6189C111.259 24.4288 112.762 23.8337 114.679 23.8337C116.51 23.8337 117.936 24.3554 118.956 25.3986C119.976 26.4419 120.486 27.8831 120.486 29.7223V31.4379H112.129C112.167 32.4425 112.465 33.2269 113.021 33.791C113.578 34.3552 114.358 34.6372 115.363 34.6372C116.143 34.6372 116.881 34.5561 117.577 34.3938C118.272 34.2315 118.999 33.9726 119.756 33.6171V36.3528C119.138 36.6619 118.477 36.8899 117.774 37.0367C117.071 37.1913 116.213 37.2685 115.201 37.2685Z"
     fill="#FAF9F8"
     id="path8" />
  <path
     d="M135.324 37.0367H131.788V29.4673C131.788 28.5323 131.622 27.8329 131.29 27.3692C130.958 26.8978 130.428 26.6621 129.702 26.6621C128.713 26.6621 127.998 26.9944 127.557 27.659C127.117 28.3159 126.897 29.4094 126.897 30.9395V37.0367H123.361V24.0772H126.062L126.537 25.7348H126.734C127.128 25.1088 127.669 24.6374 128.357 24.3206C129.053 23.996 129.841 23.8337 130.722 23.8337C132.229 23.8337 133.373 24.2433 134.153 25.0625C134.934 25.8739 135.324 27.0485 135.324 28.5863V37.0367Z"
     fill="#FAF9F8"
     id="path10" />
  <path
     d="M141.78 30.5338C141.78 31.8166 141.989 32.7864 142.406 33.4433C142.831 34.1001 143.519 34.4286 144.47 34.4286C145.412 34.4286 146.089 34.104 146.498 33.4549C146.916 32.798 147.124 31.8243 147.124 30.5338C147.124 29.2509 146.916 28.2888 146.498 27.6474C146.081 27.006 145.397 26.6853 144.446 26.6853C143.504 26.6853 142.824 27.006 142.406 27.6474C141.989 28.2811 141.78 29.2432 141.78 30.5338ZM150.741 30.5338C150.741 32.6434 150.184 34.2933 149.072 35.4834C147.959 36.6735 146.409 37.2685 144.423 37.2685C143.179 37.2685 142.082 36.9981 141.131 36.4571C140.181 35.9084 139.45 35.1241 138.94 34.104C138.43 33.0839 138.175 31.8938 138.175 30.5338C138.175 28.4163 138.728 26.7703 139.833 25.5957C140.938 24.4211 142.491 23.8337 144.493 23.8337C145.737 23.8337 146.834 24.1042 147.785 24.6452C148.735 25.1861 149.466 25.9628 149.976 26.9751C150.486 27.9874 150.741 29.1737 150.741 30.5338Z"
     fill="#FAF9F8"
     id="path12" />
  <path
     d="M159.122 34.4518C159.74 34.4518 160.482 34.3165 161.347 34.046V36.6774C160.466 37.0715 159.384 37.2685 158.101 37.2685C156.687 37.2685 155.656 36.9131 155.007 36.2021C154.365 35.4834 154.044 34.4092 154.044 32.9796V26.7317H152.352V25.2363L154.299 24.054L155.319 21.3183H157.58V24.0772H161.208V26.7317H157.58V32.9796C157.58 33.4819 157.719 33.8528 157.997 34.0924C158.283 34.332 158.658 34.4518 159.122 34.4518Z"
     fill="#FAF9F8"
     id="path14" />
  <path
     d="M172.209 37.0367L171.525 35.2748H171.432C170.837 36.0244 170.223 36.546 169.589 36.8396C168.963 37.1256 168.144 37.2685 167.131 37.2685C165.887 37.2685 164.906 36.9131 164.187 36.2021C163.476 35.4911 163.121 34.4788 163.121 33.1651C163.121 31.7895 163.6 30.7772 164.558 30.128C165.524 29.4712 166.977 29.108 168.917 29.0384L171.165 28.9689V28.4009C171.165 27.0872 170.493 26.4303 169.148 26.4303C168.113 26.4303 166.896 26.7433 165.497 27.3692L164.326 24.9813C165.818 24.2008 167.471 23.8106 169.287 23.8106C171.026 23.8106 172.359 24.1892 173.287 24.9465C174.214 25.7039 174.678 26.8553 174.678 28.4009V37.0367H172.209ZM171.165 31.0322L169.798 31.0786C168.77 31.1095 168.005 31.2949 167.502 31.635C167 31.975 166.749 32.4928 166.749 33.1883C166.749 34.1851 167.321 34.6836 168.464 34.6836C169.284 34.6836 169.937 34.4479 170.423 33.9765C170.918 33.5051 171.165 32.8791 171.165 32.0986V31.0322Z"
     fill="#FAF9F8"
     id="path16" />
  <path
     d="M185.562 23.8337C186.041 23.8337 186.439 23.8685 186.756 23.9381L186.49 27.2533C186.204 27.176 185.856 27.1374 185.446 27.1374C184.318 27.1374 183.437 27.4272 182.803 28.0068C182.177 28.5863 181.864 29.3978 181.864 30.441V37.0367H178.329V24.0772H181.007L181.528 26.2564H181.702C182.104 25.53 182.645 24.9465 183.325 24.5061C184.013 24.0579 184.759 23.8337 185.562 23.8337Z"
     fill="#FAF9F8"
     id="path18" />
  <path
     d="M187.255 24.0772H191.126L193.572 31.3684C193.781 32.002 193.924 32.7516 194.001 33.6171H194.071C194.156 32.8212 194.322 32.0716 194.569 31.3684L196.968 24.0772H200.759L195.276 38.6943C194.774 40.0467 194.055 41.059 193.12 41.7313C192.193 42.4037 191.107 42.7398 189.863 42.7398C189.252 42.7398 188.653 42.6741 188.066 42.5428V39.7376C188.491 39.838 188.955 39.8883 189.457 39.8883C190.083 39.8883 190.628 39.6951 191.091 39.3087C191.563 38.93 191.93 38.3543 192.193 37.5815L192.401 36.944L187.255 24.0772Z"
     fill="#FAF9F8"
     id="path20" />
  <path
     d="M27.8432 0.739655C12.883 0.739655 0.739624 12.883 0.739624 27.8433C0.739624 42.8035 12.883 54.9469 27.8432 54.9469C42.8035 54.9232 54.9232 42.8035 54.9469 27.8433C54.9469 12.883 42.8035 0.739655 27.8432 0.739655ZM27.8432 1.92322C42.1407 1.94689 53.7396 13.5458 53.7633 27.8433C53.7633 42.1644 42.1644 53.7633 27.8432 53.7633C13.5221 53.7633 1.92319 42.1644 1.92319 27.8433C1.92319 13.5222 13.5221 1.92322 27.8432 1.92322Z"
     fill="#FAF9F8"
     id="path22" />
  <path
     d="M27.8433 51.9643C26.4467 51.9643 25.0501 51.846 23.6535 51.6092C23.4404 51.5856 23.251 51.4435 23.18 51.2305C23.109 51.0175 23.1327 50.8044 23.2747 50.6387C23.4167 50.473 23.6298 50.402 23.8428 50.4494C26.4703 50.8991 29.1689 50.8991 31.82 50.4494C32.1514 50.402 32.4592 50.6151 32.5065 50.9228C32.5539 51.2542 32.3408 51.5619 32.0331 51.6092C30.6602 51.846 29.2399 51.9643 27.8433 51.9643ZM16.0786 48.8397C15.984 48.8397 15.8656 48.816 15.7946 48.7687C13.3565 47.3484 11.2024 45.5257 9.37968 43.3716C9.16664 43.1113 9.19031 42.7562 9.45069 42.5431C9.71107 42.3301 10.0661 42.3538 10.2792 42.6142C12.0072 44.6736 14.0666 46.4016 16.3627 47.7272C16.5994 47.8692 16.6941 48.1296 16.6468 48.3899C16.5994 48.6503 16.3627 48.8397 16.0786 48.8397ZM39.6316 48.8397C39.3712 48.8397 39.1345 48.6503 39.0634 48.4136C38.9924 48.1769 39.1108 47.8692 39.3475 47.7508C41.6673 46.4016 43.7267 44.6736 45.4547 42.6378C45.5967 42.4721 45.8098 42.3774 46.0228 42.4248C46.2358 42.4721 46.4015 42.6142 46.4962 42.8035C46.5672 43.0166 46.5199 43.2296 46.3779 43.3953C44.5789 45.5494 42.4011 47.3721 39.963 48.7687C39.8209 48.7924 39.7262 48.816 39.6316 48.8397ZM5.7343 36.5306C5.47392 36.5306 5.26088 36.3649 5.16619 36.1282C4.19567 33.477 3.69857 30.6838 3.72224 27.8669C3.72224 27.7012 3.79326 27.5592 3.88794 27.4409C4.0063 27.3225 4.14833 27.2752 4.31402 27.2752C4.64542 27.2752 4.90581 27.5355 4.90581 27.8669C4.90581 30.5418 5.37923 33.193 6.30241 35.7021C6.42077 36.0099 6.25507 36.3413 5.94734 36.4596C5.85266 36.507 5.80532 36.507 5.7343 36.5306ZM49.9759 36.507C49.9049 36.507 49.8339 36.507 49.7629 36.4833C49.6208 36.436 49.5025 36.3176 49.4315 36.1756C49.3605 36.0335 49.3605 35.8678 49.4078 35.7258C50.331 33.2167 50.7807 30.5418 50.7807 27.8669V27.8196C50.7807 27.4882 51.0411 27.2278 51.3725 27.2278C51.7039 27.2278 51.9643 27.4882 51.9643 27.8196V27.8669C51.9643 30.6838 51.4672 33.477 50.5203 36.1282C50.4493 36.3413 50.2126 36.4833 49.9759 36.507ZM5.71063 20.4105C5.52126 20.4105 5.33189 20.3158 5.21353 20.1501C5.09518 19.9844 5.07151 19.795 5.14252 19.6057C6.11304 16.9545 7.50965 14.4927 9.33233 12.3386C9.54538 12.0782 9.92412 12.0545 10.1608 12.2676C10.3975 12.4806 10.4449 12.8593 10.2318 13.0961C8.50384 15.1555 7.15458 17.4753 6.25507 20.0081C6.18406 20.2448 5.97101 20.4105 5.71063 20.4105ZM49.9522 20.3395C49.6919 20.3395 49.4788 20.1738 49.3841 19.9607C48.4609 17.4516 47.1117 15.1081 45.3837 13.0724C45.2417 12.9067 45.218 12.6936 45.289 12.4806C45.36 12.2912 45.5257 12.1255 45.7388 12.1019C45.9518 12.0782 46.1648 12.1492 46.3069 12.3149C48.1296 14.469 49.5498 16.9071 50.5203 19.5583C50.6387 19.866 50.473 20.1974 50.1653 20.3158C50.0943 20.3158 50.0233 20.3395 49.9522 20.3395ZM16.055 8.05408C15.7946 8.05408 15.5579 7.86471 15.4869 7.60432C15.4159 7.34394 15.5342 7.08355 15.7709 6.94153C18.2091 5.52125 20.8602 4.55073 23.6298 4.05363C23.8428 4.00629 24.0559 4.10097 24.1979 4.26667C24.3399 4.43237 24.3636 4.64541 24.2926 4.85845C24.2216 5.07149 24.0559 5.21352 23.8428 5.23719C21.2153 5.71062 18.6825 6.6338 16.3627 7.98306C16.2443 8.03041 16.1497 8.05408 16.055 8.05408ZM39.5842 8.03041C39.4895 8.03041 39.3712 8.00673 39.3002 7.95939C36.9804 6.6338 34.4476 5.71062 31.7964 5.23719C31.4886 5.16618 31.2993 4.85845 31.3466 4.55073C31.394 4.243 31.7017 4.02996 32.0094 4.0773C34.779 4.55073 37.4538 5.52125 39.8919 6.91786C40.1287 7.05988 40.247 7.32027 40.176 7.58065C40.0813 7.84104 39.8446 8.00673 39.5842 8.03041Z"
     fill="#FAF9F8"
     id="path24" />
  <path
     d="M27.8432 48.8397C16.2443 48.8397 6.8468 39.4422 6.8468 27.8433C6.8468 16.2444 16.2443 6.84686 27.8432 6.84686C39.4422 6.84686 48.8397 16.2444 48.8397 27.8433C48.816 39.4185 39.4185 48.816 27.8432 48.8397ZM27.8432 8.03043C16.9071 8.03043 8.03037 16.9072 8.03037 27.8433C8.03037 38.7794 16.9071 47.6562 27.8432 47.6562C38.7794 47.6562 47.6561 38.7794 47.6561 27.8433C47.6325 16.9072 38.7794 8.0541 27.8432 8.03043Z"
     fill="#FAF9F8"
     id="path26" />
  <path
     d="M26.7307 33.7611C26.6833 33.7611 26.636 33.7611 26.5887 33.7374C24.4346 33.1693 22.7302 31.536 22.0438 29.4292C21.3573 27.3225 21.7834 25.0027 23.2037 23.2747V23.251C23.3457 23.0853 23.4877 22.9196 23.6297 22.7776L28.9084 17.4989C30.5654 15.8419 32.9799 15.2028 35.2287 15.7946C37.5011 16.41 39.2528 18.1617 39.8683 20.4342C40.4837 22.7066 39.8209 25.1211 38.1639 26.7544L32.8852 32.0331C32.7195 32.1988 32.5538 32.3408 32.3881 32.4828C32.1514 32.6722 31.82 32.6485 31.607 32.4355C31.3939 32.2225 31.3703 31.8911 31.5596 31.6543C32.6485 30.3051 33.0272 28.5297 32.5775 26.8727C32.5302 26.6597 32.5775 26.4467 32.7195 26.3046L35.205 23.8192C36.1045 22.8723 36.0808 21.4047 35.1577 20.4815C34.2345 19.5583 32.7432 19.5347 31.82 20.4342L26.5413 25.7129C26.423 25.8312 26.3283 25.9496 26.2336 26.0916C25.6181 27.0384 25.7365 28.293 26.5413 29.0978C27.3461 29.9027 28.6007 30.021 29.5476 29.4056C29.7843 29.2635 30.092 29.2872 30.2814 29.4766C30.4708 29.666 30.5181 29.9737 30.3524 30.2104C30.2104 30.4234 30.0683 30.6128 29.9026 30.7785L27.1094 33.5717C27.0384 33.7137 26.8727 33.7611 26.7307 33.7611ZM24.1032 24.0322C22.9906 25.4051 22.6356 27.2278 23.1327 28.9085C23.6297 30.5891 24.908 31.9384 26.565 32.5065L28.08 30.9915C26.8017 30.9205 25.6655 30.1867 25.0737 29.0505C24.5056 27.9143 24.5766 26.5413 25.2867 25.4761C25.4288 25.2631 25.5708 25.0737 25.7365 24.908L31.0152 19.653C32.4118 18.2564 34.6842 18.2564 36.0808 19.653C37.4775 21.0496 37.4775 23.3221 36.0808 24.7187L33.8321 26.9674C33.9268 27.4172 33.9741 27.8669 33.9741 28.3404C33.9741 28.7191 33.9504 29.0978 33.8794 29.4766L37.3591 26.0206C39.4658 23.9138 39.4658 20.5052 37.3591 18.4221C35.2524 16.3154 31.8437 16.3154 29.7606 18.4221L24.4819 23.7008C24.3399 23.7481 24.2215 23.8665 24.1032 24.0322Z"
     fill="#FAF9F8"
     id="path28" />
  <path
     d="M28.2694 30.9916C26.9438 30.9916 25.7366 30.2814 25.1211 29.1215C24.5057 27.9616 24.553 26.565 25.2868 25.4525C25.3341 25.3815 25.3815 25.3341 25.4525 25.2868C26.5414 24.5766 27.9616 24.5056 29.1215 25.1211C30.2814 25.7365 30.9916 26.9438 30.9916 28.2694C30.9916 28.9558 30.7785 29.6423 30.3998 30.2341C30.3524 30.3051 30.3051 30.3524 30.2341 30.3998C29.6423 30.7785 28.9795 30.9916 28.2694 30.9916ZM26.21 26.21C25.6655 27.1568 25.8076 28.3404 26.5887 29.0979C27.3462 29.8553 28.5534 30.021 29.4766 29.4766C29.6896 29.0979 29.808 28.6954 29.808 28.2694C29.808 27.4172 29.3582 26.6124 28.6008 26.1863C27.8433 25.7602 26.9438 25.7839 26.21 26.21Z"
     fill="#FAF9F8"
     id="path30" />
  <path
     d="M33.1692 27.3225C33.1219 27.3225 33.0746 27.3225 33.0272 27.2988C32.8142 27.2515 32.6722 27.0858 32.6011 26.8727C32.104 25.0264 30.6601 23.5824 28.8137 23.0853C28.6007 23.038 28.4587 22.8723 28.4113 22.6592C28.364 22.4462 28.4113 22.2332 28.577 22.0911L31.0388 19.6057C32.4354 18.209 34.7079 18.209 36.1045 19.6057C37.5011 21.0023 37.5011 23.2747 36.1045 24.6713L33.619 27.1331C33.477 27.2515 33.3349 27.3225 33.1692 27.3225ZM30.0446 22.2568C31.5596 22.9196 32.7668 24.1269 33.4296 25.6418L35.2286 23.8191C35.8441 23.2274 36.1045 22.3279 35.8914 21.4994C35.6784 20.6709 35.0156 20.0081 34.1871 19.795C33.3586 19.582 32.4591 19.8187 31.8673 20.4578L30.0446 22.2568Z"
     fill="#FAF9F8"
     id="path32" />
  <path
     d="M28.2694 30.9916C26.9438 30.9916 25.7366 30.2814 25.1211 29.1215C24.5057 27.9616 24.553 26.565 25.2868 25.4525C25.3341 25.3815 25.3815 25.3341 25.4525 25.2868C26.5414 24.5766 27.9616 24.5056 29.1215 25.1211C30.2814 25.7365 30.9916 26.9438 30.9916 28.2694C30.9916 28.9558 30.7785 29.6423 30.3998 30.2341C30.3524 30.3051 30.3051 30.3524 30.2341 30.3998C29.6423 30.7785 28.9795 30.9916 28.2694 30.9916ZM26.21 26.21C25.6655 27.1568 25.8076 28.3404 26.5887 29.0979C27.3462 29.8553 28.5534 30.021 29.4766 29.4766C29.6896 29.0979 29.808 28.6954 29.808 28.2694C29.808 27.4172 29.3582 26.6124 28.6008 26.1863C27.8433 25.7602 26.9438 25.7839 26.21 26.21Z"
     fill="#FAF9F8"
     id="path34" />
  <path
     d="M33.1692 27.3225C33.1219 27.3225 33.0746 27.3225 33.0272 27.2988C32.8142 27.2515 32.6722 27.0858 32.6011 26.8727C32.104 25.0264 30.6601 23.5824 28.8137 23.0853C28.6007 23.038 28.4587 22.8723 28.4113 22.6592C28.364 22.4462 28.4113 22.2332 28.577 22.0911L31.0388 19.6057C32.4354 18.209 34.7079 18.209 36.1045 19.6057C37.5011 21.0023 37.5011 23.2747 36.1045 24.6713L33.619 27.1331C33.477 27.2515 33.3349 27.3225 33.1692 27.3225ZM30.0446 22.2568C31.5596 22.9196 32.7668 24.1269 33.4296 25.6418L35.2286 23.8191C35.8441 23.2274 36.1045 22.3279 35.8914 21.4994C35.6784 20.6709 35.0156 20.0081 34.1871 19.795C33.3586 19.582 32.4591 19.8187 31.8673 20.4578L30.0446 22.2568Z"
     fill="#FAF9F8"
     id="path36" />
  <path
     d="M22.1386 40.105C19.4874 40.105 17.0966 38.519 16.0787 36.0572C15.0609 33.6191 15.629 30.7785 17.499 28.9085L22.7777 23.6298C22.9434 23.4641 23.1091 23.3221 23.2748 23.18C23.5115 22.9907 23.8429 23.0143 24.056 23.2274C24.269 23.4404 24.2927 23.7718 24.1033 24.0085C23.0144 25.3578 22.6357 27.1331 23.0854 28.7901C23.1328 29.0032 23.0854 29.2162 22.9434 29.3582L20.4579 31.8437C19.5584 32.7906 19.5821 34.2582 20.5053 35.1814C21.4285 36.1046 22.9197 36.1282 23.8429 35.2287L29.1216 29.9737C29.24 29.8553 29.3347 29.737 29.4293 29.595C29.6897 29.1925 29.8081 28.7428 29.8318 28.2694C29.8318 27.3935 29.3347 26.5887 28.5772 26.1626C27.796 25.7365 26.8729 25.7839 26.139 26.2573C25.9023 26.3993 25.5946 26.3757 25.4052 26.1863C25.2159 25.9969 25.1685 25.6892 25.3342 25.4525C25.4762 25.2394 25.6183 25.0501 25.784 24.8844L28.5535 22.0912C28.6955 21.9491 28.9086 21.8781 29.1216 21.9255C31.2757 22.4936 32.98 24.1269 33.6665 26.2336C34.353 28.3404 33.9269 30.6602 32.5066 32.3882V32.4118C32.3646 32.5775 32.2226 32.7432 32.0805 32.8853L26.7782 38.164C25.5473 39.4185 23.8903 40.105 22.1386 40.105ZM21.8309 26.281L18.3512 29.737C16.2918 31.8437 16.3155 35.205 18.3985 37.2881C20.4816 39.3712 23.8429 39.3949 25.9497 37.3355L31.2284 32.0568C31.3467 31.9384 31.4651 31.7964 31.5834 31.6544L31.6071 31.6307C32.7197 30.2578 33.0747 28.4351 32.5776 26.7544C32.0805 25.0737 30.8023 23.7245 29.1453 23.1564L27.6303 24.695C28.9086 24.766 30.0448 25.4998 30.6366 26.636C31.2047 27.7723 31.1337 29.1452 30.4235 30.2104C30.2815 30.4235 30.1395 30.6128 29.9738 30.7785L24.6951 36.0572C23.2985 37.4538 21.026 37.4538 19.6294 36.0572C18.2328 34.6606 18.2328 32.3882 19.6294 30.9916L21.8782 28.7428C21.6888 27.9616 21.6652 27.1095 21.8309 26.281Z"
     fill="#FAF9F8"
     id="path38" />
  <path
     d="M28.2694 30.9916C26.9438 30.9916 25.7366 30.2814 25.1211 29.1215C24.5057 27.9616 24.553 26.565 25.2868 25.4525C25.3341 25.3815 25.3815 25.3341 25.4525 25.2868C26.8728 24.3636 28.7428 24.553 29.95 25.7602C31.1572 26.9674 31.3466 28.8375 30.4234 30.2578C30.3761 30.3288 30.3287 30.3761 30.2577 30.4235C29.6423 30.7785 28.9795 30.9916 28.2694 30.9916ZM26.21 26.21C25.6655 27.1568 25.8076 28.3404 26.5887 29.0979C27.3462 29.8553 28.5534 30.021 29.4766 29.4766C29.6896 29.0979 29.808 28.6954 29.808 28.2694C29.808 27.4172 29.3346 26.636 28.6008 26.21C27.867 25.7839 26.9438 25.7839 26.21 26.21Z"
     fill="#FAF9F8"
     id="path40" />
  <path
     d="M22.1384 37.1224C20.6945 37.1224 19.3925 36.2466 18.8481 34.921C18.3037 33.5954 18.6114 32.0568 19.6293 31.0152L22.0911 28.5534C22.2331 28.4114 22.4698 28.3404 22.6592 28.3877C22.8722 28.4351 23.0142 28.6008 23.0853 28.8138C23.5824 30.6602 25.0263 32.1041 26.8727 32.6012C27.0857 32.6485 27.2277 32.8142 27.2987 33.0273C27.3461 33.2403 27.2987 33.4534 27.1567 33.5954L24.6949 36.0572C24.0084 36.7437 23.0853 37.1224 22.1384 37.1224ZM22.2568 30.0447L20.4341 31.8437C19.5346 32.7906 19.5582 34.2582 20.4814 35.1814C21.4046 36.1046 22.8959 36.1282 23.8191 35.2287L25.6418 33.4297C24.1268 32.7669 22.9196 31.5597 22.2568 30.0447Z"
     fill="#FAF9F8"
     id="path42" />
  <path
     d="M28.2694 30.9916C26.9438 30.9916 25.7366 30.2814 25.1211 29.1215C24.5057 27.9616 24.553 26.565 25.2868 25.4525C25.3341 25.3815 25.3815 25.3341 25.4525 25.2868C26.8728 24.3636 28.7428 24.553 29.95 25.7602C31.1572 26.9674 31.3466 28.8375 30.4234 30.2578C30.3761 30.3288 30.3287 30.3761 30.2577 30.4235C29.6423 30.7785 28.9795 30.9916 28.2694 30.9916ZM26.21 26.21C25.6655 27.1568 25.8076 28.3404 26.5887 29.0979C27.3462 29.8553 28.5534 30.021 29.4766 29.4766C29.6896 29.0979 29.808 28.6954 29.808 28.2694C29.808 27.4172 29.3346 26.636 28.6008 26.21C27.867 25.7839 26.9438 25.7839 26.21 26.21Z"
     fill="#FAF9F8"
     id="path44" />
  <path
     d="M22.1384 37.1224C20.6945 37.1224 19.3925 36.2466 18.8481 34.921C18.3037 33.5954 18.6114 32.0568 19.6293 31.0152L22.0911 28.5534C22.2331 28.4114 22.4698 28.3404 22.6592 28.3877C22.8722 28.4351 23.0142 28.6008 23.0853 28.8138C23.5824 30.6602 25.0263 32.1041 26.8727 32.6012C27.0857 32.6485 27.2277 32.8142 27.2987 33.0273C27.3461 33.2403 27.2987 33.4534 27.1567 33.5954L24.6949 36.0572C24.0084 36.7437 23.0853 37.1224 22.1384 37.1224ZM22.2568 30.0447L20.4341 31.8437C19.5346 32.7906 19.5582 34.2582 20.4814 35.1814C21.4046 36.1046 22.8959 36.1282 23.8191 35.2287L25.6418 33.4297C24.1268 32.7669 22.9196 31.5597 22.2568 30.0447Z"
     fill="#FAF9F8"
     id="path46" />
  <path
     style="fill:#24c4a1;stroke-width:0.181408"
     d="m 70.048468,37.096482 c -2.890314,-0.4221 -4.845723,-2.280018 -5.65016,-5.368461 -0.16107,-0.618388 -0.2706,-1.852478 -0.2706,-3.048869 0,-3.129939 0.563651,-4.807954 2.194088,-6.531901 2.035691,-2.152443 5.426985,-2.812481 8.880526,-1.728392 1.764471,0.553879 1.721925,0.476176 1.105083,2.018228 -0.326325,0.815784 -0.633044,1.328722 -0.780374,1.305051 -0.133504,-0.02145 -0.854987,-0.255014 -1.603295,-0.519032 -2.866853,-1.011483 -5.079675,0.02164 -5.917226,2.762633 -0.374497,1.22559 -0.357557,4.267249 0.03021,5.42436 0.885941,2.643681 3.077318,3.445526 6.700104,2.451629 0.752321,-0.206396 1.407762,-0.375266 1.456536,-0.375266 0.04877,0 0.08868,0.646508 0.08868,1.436684 v 1.436685 l -0.861688,0.283496 c -0.918737,0.302266 -3.103876,0.65767 -3.854919,0.626987 -0.249436,-0.01019 -0.93207,-0.08841 -1.516965,-0.173832 z"
     id="path1458" />
  <path
     style="fill:#24c4a1;stroke-width:0.181408"
     d="m 83.727075,37.096902 c -2.093281,-0.362792 -3.79833,-1.868571 -4.477977,-3.954631 -0.440637,-1.352462 -0.431132,-4.098973 0.01859,-5.370159 0.541948,-1.53189 1.416004,-2.541933 2.781371,-3.214101 1.123828,-0.553259 1.338415,-0.595397 3.027456,-0.594494 1.590197,8.5e-4 1.942865,0.06091 2.815638,0.479533 2.455452,1.177741 3.589967,3.410856 3.403006,6.698291 -0.242924,4.271462 -3.31885,6.692006 -7.568079,5.955561 z m 2.738716,-2.988392 c 0.860937,-0.445208 1.270864,-1.582087 1.270864,-3.524575 0,-2.736389 -0.786464,-3.887313 -2.65633,-3.887313 -1.790957,0 -2.469182,0.886641 -2.595179,3.39267 -0.101421,2.017214 0.168038,3.038097 0.993104,3.762515 0.509437,0.447292 0.775498,0.541695 1.526692,0.541695 0.500355,0 1.157737,-0.128246 1.460849,-0.284992 z"
     id="path1460" />
  <path
     style="fill:#24c4a1;stroke-width:0.181408"
     d="m 97.262535,37.104224 c -1.520332,-0.376084 -2.764356,-1.724615 -3.3374,-3.617762 -0.408191,-1.348525 -0.408275,-4.456069 -1.57e-4,-5.805054 0.448107,-1.481167 1.241617,-2.6099 2.252507,-3.204095 0.764795,-0.449541 1.059656,-0.514768 2.327028,-0.514768 1.258449,0 1.564637,0.06665 2.304587,0.501618 0.46933,0.275889 0.97766,0.679132 1.12963,0.896095 0.15196,0.216962 0.30707,0.358585 0.34469,0.314718 0.0376,-0.04387 -0.004,-0.808985 -0.0929,-1.70026 -0.0887,-0.891276 -0.13802,-2.36068 -0.10957,-3.265343 l 0.0517,-1.644842 1.76873,-0.05192 1.76873,-0.05192 v 8.986263 8.986262 h -1.36701 -1.36701 l -0.36233,-0.845279 -0.36232,-0.84528 -0.60887,0.664731 c -0.33488,0.365601 -0.88993,0.782164 -1.23345,0.925696 -0.852654,0.35626 -2.26441,0.479478 -3.106605,0.271143 z m 3.997485,-3.078869 c 0.72239,-0.454049 1.05412,-1.535977 1.0534,-3.435543 -10e-4,-2.67834 -0.77288,-3.843066 -2.564639,-3.870043 -1.724,-0.02596 -2.462951,0.982838 -2.571575,3.510637 -0.105548,2.456219 0.367606,3.606652 1.667094,4.053394 0.751919,0.258498 1.76586,0.150022 2.41572,-0.258445 z"
     id="path1462" />
  <path
     style="fill:#24c4a1;stroke-width:0.181408"
     d="m 113.31931,37.028535 c -2.08025,-0.47102 -3.28204,-1.436389 -4.18373,-3.360665 -0.41999,-0.8963 -0.46656,-1.209854 -0.4581,-3.083935 0.008,-1.703576 0.0824,-2.271821 0.40727,-3.098329 0.53891,-1.371001 1.46628,-2.401132 2.71257,-3.013132 0.92808,-0.455743 1.23119,-0.509929 2.8525,-0.509929 1.51034,0 1.96595,0.06997 2.72112,0.417894 1.15657,0.532859 1.81793,1.164581 2.41127,2.303225 0.40231,0.772052 0.48377,1.197265 0.54737,2.857175 l 0.0747,1.950136 h -4.17317 -4.17317 l 0.16916,0.752852 c 0.21474,0.955777 0.75054,1.710224 1.48391,2.08946 0.86542,0.447528 3.04064,0.366766 4.64883,-0.172602 l 1.29286,-0.433614 -0.0525,1.369413 -0.0524,1.369412 -1.0336,0.314129 c -1.49097,0.453128 -3.8028,0.56372 -5.19492,0.24851 z m 3.77952,-8.464027 c 0,-0.759044 -0.60314,-1.695385 -1.27001,-1.971609 -0.65286,-0.270424 -1.84152,-0.276434 -2.33597,-0.01181 -0.53094,0.28415 -1.0622,1.111233 -1.20594,1.877429 l -0.12648,0.674153 h 2.4692 2.4692 z"
     id="path1464" />
  <path
     style="fill:#24c4a1;stroke-width:0.181408"
     d="m 123.4481,30.485284 v -6.44793 l 1.30426,0.0533 1.30426,0.0533 0.16121,0.634928 c 0.24057,0.947532 0.41275,1.017812 1.0159,0.414668 0.94235,-0.942349 1.75233,-1.229018 3.47553,-1.230064 2.01074,-0.0012 3.08222,0.496385 3.89381,1.808316 l 0.54585,0.882348 0.0557,5.139532 0.0557,5.139532 h -1.73373 -1.73374 V 32.6643 c 0,-4.778371 -0.0965,-5.286289 -1.10368,-5.807105 -1.14332,-0.591235 -2.58977,-0.06909 -3.34081,1.205991 -0.32853,0.557749 -0.36851,1.00602 -0.42302,4.742996 l -0.0602,4.127031 h -1.70853 -1.70853 z"
     id="path1466" />
  <path
     style="fill:#24c4a1;stroke-width:0.181408"
     d="m 143.1981,37.117604 c -2.77706,-0.489584 -4.50806,-2.430881 -4.89167,-5.485952 -0.41835,-3.331772 0.87638,-6.113511 3.37317,-7.247296 0.74625,-0.33887 1.22919,-0.412764 2.7243,-0.416847 1.69253,-0.0046 1.90038,0.03593 3.02835,0.590944 2.10449,1.035492 3.05118,2.666557 3.1882,5.493023 0.12691,2.617808 -0.46775,4.341705 -1.99279,5.777028 -1.10854,1.043321 -3.54391,1.621532 -5.42956,1.2891 z m 2.56318,-2.953536 c 0.24944,-0.123248 0.65572,-0.632254 0.90286,-1.131126 0.37841,-0.763859 0.44902,-1.164765 0.44733,-2.539711 -0.003,-2.635112 -0.82191,-3.798555 -2.67002,-3.794561 -1.7632,0.0038 -2.50072,0.965073 -2.63295,3.431745 -0.0978,1.824919 0.17908,2.88397 0.95766,3.662553 0.53119,0.531183 0.71262,0.600225 1.57107,0.597859 0.53379,-0.0015 1.17462,-0.103512 1.42405,-0.226759 z"
     id="path1468" />
  <path
     style="fill:#24c4a1;stroke-width:0.181408"
     d="m 157.46209,37.214294 c -0.0998,-0.03848 -0.48928,-0.121489 -0.86556,-0.184469 -0.37629,-0.06298 -0.9613,-0.357835 -1.30001,-0.655234 -1.02783,-0.902443 -1.19047,-1.710374 -1.19047,-5.913676 v -3.686547 h -0.81634 -0.81633 v -0.805871 c 0,-0.778449 0.0309,-0.823203 0.90835,-1.315207 0.83867,-0.47026 0.94808,-0.613721 1.42619,-1.869896 l 0.51782,-1.36056 1.11353,-0.05401 1.11353,-0.05401 v 1.369216 1.369216 h 1.81408 1.81408 v 1.36056 1.360559 h -1.81408 -1.81408 v 3.446751 c 0,3.204874 0.0255,3.472212 0.36281,3.809567 0.19955,0.199549 0.5465,0.371087 0.77099,0.381196 0.75352,0.03393 1.59543,-0.04603 2.14544,-0.203773 l 0.5458,-0.156534 -0.0531,1.30457 -0.0531,1.30457 -0.63604,0.207776 c -0.68164,0.222674 -2.8735,0.461509 -3.17353,0.345803 z"
     id="path1470" />
  <path
     style="fill:#24c4a1;stroke-width:0.181408"
     d="m 166.00447,37.102343 c -1.82988,-0.452869 -2.82292,-1.824874 -2.82625,-3.904812 -0.004,-2.798433 1.57406,-3.800307 6.57426,-4.172557 l 1.40591,-0.104666 V 28.22027 c 0,-0.478788 -0.1385,-0.860906 -0.43822,-1.209026 -0.40837,-0.474302 -0.5289,-0.508166 -1.76873,-0.496932 -0.87776,0.008 -1.68669,0.14261 -2.37727,0.395727 l -1.04676,0.383672 -0.54681,-1.083217 c -0.30074,-0.595768 -0.50229,-1.155245 -0.44788,-1.24328 0.0544,-0.08803 0.64907,-0.349871 1.32146,-0.581856 1.01744,-0.351033 1.58773,-0.421328 3.39943,-0.419023 1.91187,0.0024 2.28154,0.05437 3.03645,0.426634 1.0503,0.517923 1.86888,1.416832 2.12277,2.331089 0.11041,0.397596 0.19072,2.684163 0.1913,5.447197 l 0.001,4.761958 h -1.18559 -1.1856 l -0.35825,-0.835751 -0.35824,-0.83575 -0.74379,0.67197 c -0.40909,0.369583 -1.00359,0.780522 -1.32113,0.913198 -0.79789,0.333377 -2.5952,0.466538 -3.44807,0.255463 z m 3.57243,-2.594758 c 1.06569,-0.454084 1.46548,-1.075082 1.55037,-2.408209 l 0.076,-1.193957 -1.33765,0.133758 c -2.34262,0.234247 -3.06104,0.724291 -3.06104,2.087975 0,0.841926 0.25264,1.259848 0.90704,1.500469 0.49548,0.182184 1.27348,0.132118 1.86526,-0.120036 z"
     id="path1472" />
  <path
     style="fill:#24c4a1;stroke-width:0.181408"
     d="m 178.41471,30.493231 v -6.439982 h 1.26286 1.26287 l 0.1992,0.770984 c 0.43003,1.66443 0.44583,1.679229 0.96768,0.906518 0.81333,-1.204308 2.32738,-1.930593 3.80128,-1.82346 l 0.76017,0.05525 -0.0576,1.269856 c -0.0873,1.924175 -0.0742,1.904783 -1.28661,1.904783 -1.36622,0 -2.49372,0.574694 -3.05191,1.555577 -0.38309,0.67321 -0.40534,0.917208 -0.40816,4.476237 l -0.003,3.764215 h -1.72337 -1.72338 z"
     id="path1474" />
  <path
     style="fill:#24c4a1;stroke-width:0.181408"
     d="m 188.5282,42.618859 c -0.49176,-0.08487 -0.49887,-0.105318 -0.49887,-1.434609 v -1.34851 l 1.1338,-6.71e-4 c 1.49825,-8.89e-4 2.18668,-0.417907 2.7746,-1.680699 0.24302,-0.521971 0.44265,-1.032653 0.44362,-1.134849 9.8e-4,-0.102203 -1.1411,-3.03903 -2.53794,-6.52629 -1.39684,-3.48726 -2.53971,-6.362862 -2.53971,-6.390227 0,-0.02736 0.85189,-0.04975 1.89309,-0.04975 h 1.8931 l 1.37225,4.148811 c 0.75473,2.281846 1.37225,4.358685 1.37225,4.615197 0,0.740462 0.30561,0.729911 0.42511,-0.01468 0.0597,-0.372173 0.69738,-2.493025 1.417,-4.713005 l 1.30841,-4.036327 h 1.86693 1.86692 l -0.52115,1.405912 c -2.02187,5.454447 -4.99555,13.325264 -5.27231,13.954927 -0.49128,1.117709 -1.68456,2.315683 -2.77304,2.783932 -0.93201,0.400944 -2.61018,0.595818 -3.62406,0.420839 z"
     id="path1476" />
  <path
     style="fill:#24c4a1;stroke-width:0.181408"
     d="M 24.414655,54.707249 C 21.243543,54.26569 18.249765,53.304834 15.333229,51.792557 12.622099,50.386787 10.577716,48.844146 8.3385507,46.514551 4.7476031,42.778581 2.5082668,38.551829 1.3286652,33.283376 0.96091958,31.640914 0.90860566,30.936625 0.91929378,27.772112 0.92950551,24.748644 0.99710115,23.847939 1.3248691,22.367857 2.9257417,15.138894 6.941968,9.2522277 13.006436,5.2459416 15.880418,3.3473419 18.780791,2.1299721 22.277928,1.3544283 24.708012,0.8155199 29.313504,0.69100083 31.88742,1.0946156 39.512244,2.290262 46.080569,6.4781489 50.367117,12.877054 c 2.795329,4.172832 4.247052,8.709686 4.446929,13.897314 0.17971,4.664285 -0.611036,8.561236 -2.566761,12.64948 -1.403646,2.934181 -2.931403,5.076516 -5.347117,7.498122 -3.925967,3.935543 -8.814494,6.547197 -14.078065,7.521086 -1.879851,0.347817 -6.715599,0.499775 -8.407448,0.264193 z m 8.517328,-1.426967 C 43.274502,51.199168 51.27147,43.117149 53.366552,32.628384 c 0.441538,-2.210495 0.441538,-7.320641 0,-9.531137 C 51.255118,12.526618 43.44878,4.6734738 32.744134,2.3511797 30.571142,1.8797653 25.138355,1.8741418 22.948105,2.3410397 16.988123,3.6115348 11.776365,6.6632974 8.111402,11.028722 5.17352,14.528103 3.4340776,18.071061 2.4187767,22.623664 c -0.5998209,2.689592 -0.597609,7.709709 0.00462,10.492122 1.9895579,9.192096 8.5281013,16.46756 17.4407713,19.406417 1.313642,0.433159 3.289602,0.85287 5.532942,1.175241 1.216561,0.174821 5.874488,-0.08306 7.534871,-0.417162 z"
     id="path1478" />
  <path
     style="fill:#24c4a1;stroke-width:0.181408"
     d="m 48.562238,18.031558 c -0.599996,-1.227804 -1.588164,-2.90699 -2.195929,-3.731525 -0.607765,-0.824535 -1.105027,-1.56965 -1.105027,-1.655811 0,-0.280608 0.491319,-0.572811 0.778103,-0.462762 0.832603,0.3195 4.61068,6.8053 4.451253,7.641439 -0.03461,0.181544 -0.237213,0.355043 -0.450217,0.385554 -0.331315,0.04746 -0.544928,-0.267127 -1.478183,-2.176895 z"
     id="path1480" />
  <path
     style="fill:#24c4a1;stroke-width:0.0641374"
     d="M 26.123739,48.764209 C 19.656443,48.172307 14.003144,44.851578 10.4329,39.547463 6.5905272,33.839061 5.7948111,26.595544 8.3068681,20.193888 c 1.6409814,-4.181831 4.6090149,-7.75408 8.4528109,-10.173585 1.961702,-1.2348074 4.480195,-2.2419999 6.780167,-2.7115156 1.682509,-0.343467 2.192853,-0.3895312 4.315602,-0.3895312 2.113717,0 2.642028,0.047331 4.270916,0.3826247 7.022085,1.4454417 12.882981,6.4819501 15.375377,13.2126941 0.543172,1.466842 0.858325,2.691944 1.105439,4.297205 0.175152,1.137796 0.241954,3.682351 0.12847,4.893536 -0.461423,4.924645 -2.592791,9.472793 -6.062686,12.937223 -3.379109,3.373788 -7.598991,5.434709 -12.348226,6.03067 -0.966624,0.121298 -3.314308,0.172153 -4.200999,0.091 z m 3.178014,-1.1543 c 4.823119,-0.373776 9.20484,-2.392652 12.591916,-5.801719 3.175666,-3.196284 5.136205,-7.28085 5.649072,-11.769212 0.113718,-0.99521 0.130818,-3.064615 0.03346,-4.049895 C 47.117905,21.350795 45.123386,17.129412 41.83783,13.843856 38.815002,10.821028 34.969805,8.8798541 30.709812,8.2260902 29.603967,8.0563806 27.15705,7.9894964 26.053462,8.0988133 22.171106,8.483383 18.682999,9.8729329 15.573137,12.273838 c -0.789341,0.609396 -2.5961,2.413163 -3.261649,3.25625 -3.4945855,4.426784 -4.9457223,10.06747 -4.0129585,15.598698 0.938884,5.567521 4.2254245,10.493261 9.0063175,13.498325 3.565875,2.241356 7.842793,3.304728 11.996906,2.982798 z"
     id="path1482" />
  <path
     style="fill:#24c4a1;stroke-width:0.0641374"
     d="M 38.578873,7.5577064 C 36.52647,6.4965719 34.494725,5.7686778 32.409203,5.347358 31.666886,5.197394 31.519888,5.1336185 31.422158,4.9191242 c -0.151132,-0.331699 -0.02268,-0.6759899 0.297635,-0.7977748 0.288006,-0.1094996 2.44002,0.3834013 3.971297,0.9095925 1.471791,0.5057501 3.797733,1.576346 4.248183,1.9553744 0.41215,0.3468015 0.269061,0.8502849 -0.288742,1.0159885 -0.09432,0.028019 -0.414308,-0.1047346 -1.071658,-0.4445984 z"
     id="path1484" />
  <path
     style="fill:#24c4a1;stroke-width:0.0641374"
     d="m 49.68705,36.420672 c -0.09214,-0.05008 -0.203592,-0.178126 -0.247676,-0.284555 -0.07179,-0.173323 -0.05306,-0.275612 0.179642,-0.980686 0.724817,-2.196196 1.16555,-4.790439 1.16555,-6.860662 0,-0.679168 0.09139,-0.906272 0.406539,-1.010282 0.260502,-0.08597 0.496545,-0.0131 0.645256,0.199218 0.297838,0.425224 -0.04966,4.020004 -0.598923,6.195618 -0.253882,1.005625 -0.624322,2.226129 -0.748612,2.466479 -0.05368,0.10381 -0.195776,0.229765 -0.315765,0.279899 -0.263194,0.10997 -0.274634,0.109852 -0.486011,-0.005 z"
     id="path1486" />
  <path
     style="fill:#24c4a1;stroke-width:0.0641374"
     d="m 15.797618,7.9623858 c -0.206707,-0.1185464 -0.284404,-0.259181 -0.286578,-0.51872 -0.0014,-0.1706045 0.04223,-0.2877047 0.145952,-0.3914226 0.21969,-0.2196901 2.576567,-1.3756394 3.576501,-1.754124 0.478709,-0.1811957 1.214686,-0.4347982 1.635504,-0.5635609 0.895065,-0.2738737 2.601594,-0.6702129 2.888327,-0.67081 0.303968,-6.331e-4 0.538499,0.250524 0.538499,0.5766747 0,0.4183283 -0.160263,0.5274975 -1.02736,0.6998264 -1.898723,0.3773565 -3.821713,1.0563632 -5.771027,2.0377465 -0.723052,0.3640209 -1.372443,0.6609785 -1.443092,0.6599058 -0.07065,-0.00107 -0.186175,-0.035055 -0.256726,-0.075516 z"
     id="path1488" />
  <path
     style="fill:#24c4a1;stroke-width:0.0641374"
     d="M 5.5035666,20.348704 C 5.2947189,20.264958 5.1219627,20.04046 5.1201684,19.850475 c -0.00438,-0.464276 1.2917497,-3.236888 2.2008151,-4.70785 0.5146963,-0.832833 1.6284611,-2.371405 1.9955759,-2.756721 0.3295985,-0.34594 0.7576236,-0.306414 0.9506656,0.08779 0.147634,0.301478 0.09371,0.443593 -0.4022874,1.060149 -1.472743,1.830726 -2.770848,4.121027 -3.527599,6.223892 -0.078702,0.218697 -0.1902646,0.440127 -0.2479177,0.492068 -0.1470094,0.132443 -0.3969758,0.174643 -0.5858543,0.0989 z"
     id="path1490" />
  <path
     style="fill:#24c4a1;stroke-width:0.0641374"
     d="M 5.4281734,36.421128 C 5.2325384,36.311938 5.1147384,36.031063 4.729597,34.75549 4.1893462,32.966201 3.8781214,31.140182 3.7692936,29.121196 c -0.06343,-1.176751 -0.059945,-1.287929 0.047211,-1.506147 0.081623,-0.166222 0.1764551,-0.252647 0.3220069,-0.29346 0.2484434,-0.06967 0.5663989,0.04199 0.6698072,0.235208 0.038224,0.07142 0.093547,0.669157 0.1229399,1.328298 0.1002142,2.247336 0.5781859,4.70941 1.2797167,6.591933 0.1666257,0.447132 0.1599227,0.552023 -0.05,0.782425 -0.2106434,0.231191 -0.4956066,0.294061 -0.7328019,0.161675 z"
     id="path1492" />
  <path
     style="fill:#24c4a1;stroke-width:0.0641374"
     d="M 15.301156,48.453327 C 13.995422,47.657218 12.864508,46.80242 11.57512,45.637012 10.713339,44.858096 9.4229259,43.466389 9.3054217,43.189149 9.1501374,42.82277 9.4421913,42.417495 9.8614991,42.417495 c 0.1535409,0 0.2633099,0.07604 0.5313899,0.368129 1.881932,2.050446 3.369391,3.328926 5.258812,4.51998 0.448879,0.282965 0.852288,0.558033 0.896466,0.611264 0.04418,0.05323 0.08032,0.211647 0.08032,0.352038 0,0.199657 -0.03888,0.288697 -0.178497,0.408792 -0.269146,0.23151 -0.463326,0.193587 -1.148836,-0.224371 z"
     id="path1494" />
  <path
     style="fill:#24c4a1;stroke-width:0.0641374"
     d="m 26.387132,51.909543 c -0.930757,-0.06062 -2.390339,-0.233311 -2.738532,-0.324004 -0.400966,-0.104438 -0.601812,-0.495056 -0.42686,-0.830183 0.160616,-0.307665 0.323898,-0.331944 1.305711,-0.19415 2.257365,0.316812 4.591649,0.30611 6.852784,-0.03142 0.480228,-0.07169 0.60827,-0.07163 0.780521,3.41e-4 0.371524,0.155233 0.45379,0.534647 0.185147,0.853911 -0.144553,0.171791 -0.22422,0.199237 -0.84982,0.292775 -1.553701,0.232304 -3.649629,0.327781 -5.108951,0.23273 z"
     id="path1496" />
  <path
     style="fill:#24c4a1;stroke-width:0.0641374"
     d="m 39.387884,48.768568 c -0.245203,-0.102408 -0.369297,-0.361251 -0.302601,-0.631186 0.0458,-0.185371 0.125218,-0.277508 0.369387,-0.428552 2.233136,-1.381435 4.040807,-2.856444 5.48183,-4.473022 0.393656,-0.441614 0.727256,-0.758923 0.823206,-0.783005 0.369471,-0.09273 0.727655,0.178722 0.727655,0.551461 0,0.205534 -0.06207,0.316841 -0.396158,0.710366 -1.373063,1.617361 -3.453266,3.388864 -5.403127,4.601309 -0.717939,0.446422 -1.043601,0.559794 -1.300192,0.452629 z"
     id="path1498" />
  <path
     style="fill:#24c4a1;stroke-width:0.0641374"
     d="m 21.313434,40.035294 c -2.215154,-0.281375 -4.145951,-1.693095 -5.099205,-3.728332 -1.019106,-2.175836 -0.746076,-4.762687 0.707057,-6.699091 0.509379,-0.678784 12.342821,-12.484288 12.858284,-12.827927 1.27648,-0.850978 2.585853,-1.22079 4.088056,-1.154605 1.68955,0.07444 3.076257,0.690015 4.285011,1.902168 0.583273,0.584913 0.880588,0.995605 1.238013,1.710114 0.832432,1.664068 0.898798,3.699566 0.176662,5.418302 -0.463042,1.102072 -0.398044,1.030416 -6.725222,7.414207 -3.257435,3.286581 -6.101651,6.132106 -6.32048,6.32339 -1.105023,0.965922 -2.23204,1.47704 -3.635128,1.648582 -0.618509,0.07562 -0.93491,0.07425 -1.573048,-0.0068 z m 1.614828,-1.214254 c 0.655659,-0.09004 1.348127,-0.322993 1.944797,-0.654251 0.422183,-0.234386 0.844727,-0.628228 3.453955,-3.219339 1.635108,-1.623755 3.116851,-3.139884 3.292763,-3.369175 0.377144,-0.491587 0.831569,-1.402168 0.99224,-1.988259 0.178444,-0.650925 0.162601,-2.052797 -0.03081,-2.725839 C 32.273671,25.793955 31.679244,24.86116 30.876153,24.188536 30.4184,23.80515 29.794719,23.425029 29.377686,23.275252 l -0.23949,-0.08601 -0.753109,0.745627 -0.75311,0.745627 0.459626,0.07744 c 0.703452,0.118528 1.342341,0.462712 1.880379,1.013004 0.870879,0.890712 1.210301,2.021317 0.962341,3.205532 -0.206543,0.986417 -0.214319,0.996123 -3.359928,4.19448 -1.573923,1.600316 -3.03485,3.040808 -3.246504,3.201093 -0.68127,0.515926 -1.317494,0.728459 -2.180671,0.728459 -0.626765,0 -1.019258,-0.08691 -1.539297,-0.340867 -0.994502,-0.485645 -1.657258,-1.297989 -1.931122,-2.366985 -0.138877,-0.542089 -0.09191,-1.471801 0.102388,-2.026949 0.228969,-0.654195 0.556983,-1.078328 1.848317,-2.389935 l 1.228151,-1.247432 -0.04663,-0.258638 c -0.02565,-0.14225 -0.046,-0.684789 -0.04524,-1.205641 l 0.0014,-0.947006 -1.818131,1.81286 c -0.999973,0.997073 -1.946432,1.990547 -2.103243,2.20772 -0.35773,0.495433 -0.747035,1.328652 -0.894319,1.914086 -0.13809,0.548894 -0.157007,1.756723 -0.03616,2.308946 0.410749,1.876984 1.815826,3.458532 3.588227,4.038892 0.811056,0.265575 1.588765,0.336557 2.426706,0.221484 z M 23.1779,35.657199 c 0.283205,-0.129657 0.590767,-0.390518 1.382455,-1.172542 0.560019,-0.553182 1.018216,-1.025853 1.018216,-1.050379 0,-0.02453 -0.09113,-0.08234 -0.20251,-0.128475 -0.405808,-0.168092 -1.188332,-0.730589 -1.679486,-1.207255 -0.487741,-0.473355 -1.143306,-1.361766 -1.318629,-1.786986 -0.04727,-0.114646 -0.105264,-0.208447 -0.128876,-0.208447 -0.02361,0 -0.494895,0.455164 -1.047294,1.011475 -1.246746,1.255576 -1.364697,1.462484 -1.361199,2.387807 0.002,0.527007 0.02547,0.656952 0.173812,0.962061 0.188809,0.388337 0.540709,0.802541 0.872508,1.026984 0.614949,0.415977 1.590307,0.486546 2.291003,0.165757 z m 4.130659,-3.898235 0.735858,-0.713693 -0.511377,-0.120476 c -1.140584,-0.268713 -1.993941,-0.932622 -2.464964,-1.917736 -0.513028,-1.072966 -0.520209,-2.082533 -0.02231,-3.137012 0.21783,-0.461335 0.354842,-0.608548 3.346324,-3.595474 2.800642,-2.796378 3.161769,-3.13493 3.536087,-3.315032 0.8621,-0.414798 1.645989,-0.49985 2.527947,-0.274283 0.627095,0.160384 1.054883,0.391584 1.521118,0.822096 0.771186,0.712099 1.152682,1.576172 1.154814,2.61561 0.0014,0.673188 -0.104158,1.120131 -0.406955,1.723402 -0.153555,0.305934 -0.477881,0.673567 -1.530769,1.735177 l -1.335934,1.347 0.06823,0.480916 c 0.03753,0.264504 0.05312,0.823963 0.03466,1.243244 l -0.03357,0.762327 0.459352,-0.441624 c 1.887826,-1.814971 3.390907,-3.372184 3.663169,-3.795096 0.608418,-0.945072 0.868907,-1.833678 0.868907,-2.964094 0,-1.511933 -0.512208,-2.741953 -1.582924,-3.801243 -0.706042,-0.698508 -1.348356,-1.07973 -2.310434,-1.371273 -0.487996,-0.147879 -0.681124,-0.171356 -1.430045,-0.173836 -1.235656,-0.0041 -2.041561,0.231863 -3.058868,0.895581 -0.401039,0.261648 -6.157027,5.921909 -6.58054,6.471099 -0.136015,0.176378 -0.360333,0.553139 -0.498484,0.837248 -1.309663,2.69334 -0.139042,5.951528 2.592668,7.216164 0.216647,0.100296 0.422766,0.182884 0.458042,0.183529 0.03528,6.47e-4 0.395273,-0.31999 0.799996,-0.712521 z m 1.873908,-2.153552 c 0.236075,-0.104428 0.308058,-0.180068 0.418303,-0.439554 0.814878,-1.918017 -1.144863,-3.858072 -3.103574,-3.072397 -0.325866,0.130711 -0.502819,0.456962 -0.570023,1.050964 -0.126229,1.115726 0.536887,2.151145 1.607588,2.510157 0.482192,0.161681 1.220873,0.139638 1.647706,-0.04917 z m 6.434494,-6.339253 c 0.139661,-0.288994 0.133862,-0.269145 0.21364,-0.731256 0.175973,-1.019312 -0.409459,-2.095624 -1.389836,-2.555208 -0.314077,-0.147233 -0.447542,-0.170631 -0.973295,-0.170631 -0.566868,0 -0.636278,0.01464 -0.996569,0.210136 -0.274918,0.149175 -0.679119,0.502696 -1.393309,1.21861 l -1.006046,1.008475 0.487625,0.256549 c 1.037381,0.545786 2.082056,1.592423 2.619681,2.6246 l 0.256549,0.492545 1.030317,-1.051797 c 0.566674,-0.578488 1.084734,-1.164398 1.151243,-1.302023 z"
     id="path1500" />
</svg>
